<?xml version="1.0" encoding="UTF-8"?>
<svg id="Layer_2" data-name="Layer 2" xmlns="http://www.w3.org/2000/svg" viewBox="0 0 166.75 39.77">
  <defs>
    <style>
      .cls-1 {
        fill: #fff;
      }
    </style>
  </defs>
  <g id="Layer_1-2" data-name="Layer 1">
    <g>
      <g>
        <path class="cls-1" d="M54.7,34.98V4.76h9.86c4.46,0,8.17,1.31,11.14,3.93,2.97,2.62,4.45,6.35,4.45,11.18s-1.48,8.56-4.45,11.18c-2.97,2.62-6.68,3.93-11.14,3.93h-9.86ZM60.43,30.01h3.65c2.93,0,5.37-.82,7.32-2.46,1.96-1.64,2.93-4.2,2.93-7.68s-.98-6.05-2.93-7.71c-1.96-1.65-4.4-2.48-7.32-2.48h-3.65v20.33Z"/>
        <path class="cls-1" d="M98.75,27.73h5.21c-.41,2.3-1.55,4.14-3.43,5.53-1.88,1.38-4.17,2.07-6.87,2.07-3.42,0-6.13-1.12-8.15-3.37-2.01-2.24-3.02-4.89-3.02-7.94s.94-5.71,2.82-7.88,4.52-3.26,7.91-3.26,6.08,1.04,7.91,3.11c1.83,2.07,2.74,4.53,2.74,7.38,0,.63-.03,1.24-.09,1.81h-16.16c.2,1.76.84,3.15,1.91,4.19,1.07,1.04,2.45,1.55,4.13,1.55,2.81,0,4.5-1.06,5.08-3.19ZM93.24,16.85c-3.1,0-4.92,1.61-5.47,4.83h10.77c-.12-1.44-.64-2.6-1.59-3.5-.94-.89-2.18-1.34-3.71-1.34Z"/>
        <path class="cls-1" d="M117.09,35.32c-3.33,0-6.02-1.07-8.06-3.22-2.04-2.14-3.06-4.81-3.06-8.01s1.02-5.86,3.06-8.01c2.04-2.14,4.73-3.22,8.06-3.22,2.81,0,5.2.76,7.17,2.29,1.97,1.53,3.07,3.53,3.3,6h-5.3c-.2-1.06-.78-1.95-1.72-2.65-.94-.7-2.05-1.06-3.32-1.06-1.8,0-3.19.62-4.19,1.86-1,1.24-1.5,2.83-1.5,4.79s.51,3.55,1.52,4.79c1.01,1.24,2.43,1.86,4.26,1.86,1.25,0,2.32-.32,3.24-.97.91-.65,1.5-1.52,1.76-2.61h5.39c-.35,2.39-1.5,4.35-3.45,5.87s-4.34,2.29-7.15,2.29Z"/>
        <path class="cls-1" d="M139.46,12.88c2.81,0,5.09.74,6.84,2.22,1.75,1.48,2.63,3.45,2.63,5.89v13.99h-5.26v-3.24c-.46,1.09-1.28,1.96-2.46,2.61s-2.54.97-4.11.97c-2.14,0-3.9-.61-5.26-1.83-1.36-1.22-2.04-2.78-2.04-4.68,0-2.1.75-3.77,2.26-5.01,1.51-1.24,3.49-1.86,5.95-1.86h4.04c1.07,0,1.61-.49,1.61-1.47,0-1.06-.4-1.94-1.2-2.61-.8-.68-1.89-1.01-3.28-1.01s-2.45.36-3.28,1.08c-.83.72-1.27,1.6-1.33,2.63h-4.78c.14-2.22,1.09-4.05,2.85-5.5,1.75-1.45,4.02-2.18,6.8-2.18ZM138.38,31.4c1.65,0,2.95-.52,3.89-1.55.94-1.04,1.41-2.39,1.41-4.06v-.35h-4.91c-1.13,0-2.04.29-2.74.86-.7.58-1.04,1.34-1.04,2.29,0,.83.31,1.51.93,2.03s1.44.78,2.46.78Z"/>
        <path class="cls-1" d="M155.02,34.98v-17.31h-4.3v-4.45h4.3v-2.03c0-2.22.71-3.99,2.13-5.31s3.32-1.99,5.69-1.99h3.91v4.49h-3.3c-.93,0-1.67.27-2.24.82-.56.55-.85,1.29-.85,2.24v1.77h6.39v4.45h-6.39v17.31h-5.34Z"/>
      </g>
      <path class="cls-1" d="M9.93,0l-4.97,4.96L0,9.93v29.83h29.86l9.91-9.91V0H9.93ZM19.89,34.8h-9.94s-4.97,0-4.97,0h0s0,0,0,0v-4.94h0v-14.94h4.97v14.94h9.94v4.94ZM29.82,19.91h-4.97v4.99h-4.96v-9.99h9.93v4.99Z"/>
    </g>
  </g>
</svg>