<svg width="167" height="40" viewBox="0 0 167 40" fill="none" xmlns="http://www.w3.org/2000/svg">
<g clip-path="url(#clip0_3992_42)">
<path d="M9.98743 0.115234L4.98868 5.10517L0 10.1052V40.1152H30.0327L40 30.1454V0.115234H9.98743ZM20.005 35.1253H10.0075H5.0088V30.1555V15.1253H10.0075V30.1555H20.005V35.1253ZM29.9925 20.1454H24.9937V25.1655H20.005V15.1152H29.9925V20.1354V20.1454Z" fill="white"/>
<path d="M56 31.848V8.7793H63.5267C66.9313 8.7793 69.7634 9.7793 72.0305 11.7793C74.2977 13.7793 75.4275 16.6266 75.4275 20.3136C75.4275 24.0007 74.2977 26.848 72.0305 28.848C69.7634 30.848 66.9313 31.848 63.5267 31.848H56ZM60.374 28.0541H63.1603C65.3969 28.0541 67.2595 27.4282 68.7481 26.1762C70.2443 24.9243 70.9847 22.9701 70.9847 20.3136C70.9847 17.6572 70.2366 15.6953 68.7481 14.4282C67.2519 13.1686 65.3893 12.535 63.1603 12.535H60.374V28.0541Z" fill="white"/>
<path d="M89.6273 26.3139H93.6044C93.2914 28.0696 92.4212 29.4742 90.9861 30.5353C89.551 31.5887 87.8029 32.1154 85.7418 32.1154C83.1311 32.1154 81.0624 31.2605 79.5204 29.5429C77.9861 27.833 77.2151 25.8101 77.2151 23.4818C77.2151 21.1536 77.9326 19.1231 79.3678 17.4666C80.8029 15.8101 82.8181 14.978 85.4059 14.978C87.9937 14.978 90.0471 15.7719 91.4441 17.3521C92.841 18.9322 93.5357 20.8101 93.5357 22.9857C93.5357 23.4666 93.5128 23.9322 93.467 24.3673H81.1311C81.2838 25.7109 81.7723 26.7719 82.5891 27.5658C83.4059 28.3597 84.4594 28.749 85.7418 28.749C87.8868 28.749 89.1769 27.9399 89.6197 26.3139H89.6273ZM85.4212 18.0086C83.0548 18.0086 81.6655 19.2376 81.2456 21.6956H89.467C89.3754 20.5963 88.9784 19.7109 88.2533 19.0238C87.5357 18.3444 86.5891 18.0009 85.4212 18.0009V18.0086Z" fill="white"/>
<path d="M103.627 32.1074C101.085 32.1074 99.0312 31.2906 97.4739 29.6494C95.9167 28.0158 95.1381 25.9777 95.1381 23.5349C95.1381 21.0922 95.9167 19.0616 97.4739 17.4204C99.0312 15.7868 101.085 14.9624 103.627 14.9624C105.772 14.9624 107.596 15.5426 109.1 16.7105C110.604 17.8784 111.443 19.4052 111.619 21.2906H107.573C107.421 20.4815 106.978 19.8021 106.26 19.2677C105.543 18.7334 104.695 18.4586 103.726 18.4586C102.352 18.4586 101.291 18.9319 100.527 19.8784C99.764 20.825 99.3823 22.0387 99.3823 23.5349C99.3823 25.0311 99.7717 26.2448 100.543 27.1914C101.314 28.138 102.398 28.6113 103.795 28.6113C104.749 28.6113 105.566 28.367 106.268 27.8708C106.962 27.3746 107.413 26.7105 107.611 25.8784H111.726C111.459 27.7029 110.581 29.199 109.092 30.3593C107.604 31.5197 105.779 32.1074 103.634 32.1074H103.627Z" fill="white"/>
<path d="M120.704 14.978C122.849 14.978 124.59 15.5429 125.925 16.6727C127.261 17.8025 127.933 19.3063 127.933 21.1689V31.8483H123.918V29.375C123.567 30.207 122.941 30.8712 122.04 31.3673C121.139 31.8635 120.101 32.1078 118.903 32.1078C117.269 32.1078 115.925 31.6421 114.887 30.7109C113.849 29.7796 113.33 28.5887 113.33 27.1383C113.33 25.5353 113.903 24.2605 115.055 23.3139C116.208 22.3673 117.719 21.8941 119.597 21.8941H122.681C123.498 21.8941 123.91 21.52 123.91 20.7719C123.91 19.9628 123.605 19.291 122.994 18.7796C122.383 18.2605 121.551 18.0086 120.49 18.0086C119.429 18.0086 118.62 18.2834 117.987 18.833C117.353 19.3826 117.017 20.0544 116.971 20.8406H113.322C113.429 19.146 114.154 17.749 115.498 16.6421C116.834 15.5353 118.567 14.978 120.689 14.978H120.704ZM119.88 29.1154C121.139 29.1154 122.132 28.7185 122.849 27.9322C123.567 27.1383 123.925 26.1078 123.925 24.833V24.5658H120.177C119.315 24.5658 118.62 24.7872 118.086 25.2223C117.551 25.665 117.292 26.2452 117.292 26.9704C117.292 27.604 117.528 28.1231 118.002 28.52C118.475 28.917 119.101 29.1154 119.88 29.1154Z" fill="white"/>
<path d="M132.58 31.8481V18.6343H129.298V15.2374H132.58V13.6878C132.58 11.9931 133.122 10.642 134.206 9.63432C135.29 8.62668 136.74 8.11523 138.55 8.11523H141.534V11.5427H139.015C138.305 11.5427 137.74 11.7488 137.305 12.1687C136.878 12.5885 136.657 13.1534 136.657 13.8786V15.2297H141.534V18.6267H136.657V31.8404H132.58V31.8481Z" fill="white"/>
</g>
<defs>
<clipPath id="clip0_3992_42">
<rect width="166.75" height="39.77" fill="white" transform="translate(0 0.115234)"/>
</clipPath>
</defs>
</svg>
